<?xml version="1.0" encoding="UTF-8" standalone="no"?>
<!-- Created with Inkscape (http://www.inkscape.org/) -->

<svg
   width="48"
   height="48"
   viewBox="0 0 48 48"
   version="1.1"
   id="svg5"
   xmlns="http://www.w3.org/2000/svg"
   xmlns:svg="http://www.w3.org/2000/svg">
  <defs
     id="defs2" />
  <g
     id="layer1">
    <path
       style="fill:none;stroke:#909890;stroke-width:2;stroke-linecap:round;stroke-linejoin:round"
       d="M 9,40 C 6.9776888,40 5.1545073,38.781789 4.3806024,36.913417"
       id="path438-5" />
    <path
       style="fill:none;stroke:#909890;stroke-width:2;stroke-linecap:round;stroke-linejoin:round"
       d="M 9,19 C 6.9776888,19 5.1545073,17.781789 4.3806024,15.913417"
       id="path438" />
    <rect
       style="fill:#c8c89c;fill-opacity:1;stroke:#c8c89c;stroke-width:2;stroke-linecap:round;stroke-linejoin:round;stroke-dasharray:none"
       id="rect1372"
       width="35"
       height="40"
       x="9"
       y="4"
       rx="2"
       ry="2" />
    <circle
       style="fill:#000000;fill-opacity:1;stroke:#000000;stroke-width:2;stroke-linecap:round;stroke-linejoin:round;stroke-dasharray:none"
       id="path4291"
       cx="14"
       cy="14"
       r="1" />
    <circle
       style="fill:#000000;fill-opacity:1;stroke:#000000;stroke-width:2;stroke-linecap:round;stroke-linejoin:round;stroke-dasharray:none"
       id="path4291-5"
       cx="14"
       cy="35"
       r="1" />
    <path
       style="fill:none;stroke:#909890;stroke-width:2;stroke-linecap:round;stroke-linejoin:round"
       d="M 4.3806024,15.913417 C 3.6066974,14.045045 4.0344761,11.894456 5.464466,10.464466 6.8944559,9.034476 9.045045,8.6066971 10.913417,9.380602 12.781789,10.154507 14,11.977689 14,14"
       id="path3478" />
    <path
       style="fill:none;stroke:#909890;stroke-width:2;stroke-linecap:round;stroke-linejoin:round"
       d="M 4.3806024,36.913417 C 3.6066974,35.045045 4.0344761,32.894456 5.464466,31.464466 6.8944559,30.034476 9.045045,29.606697 10.913417,30.380602 12.781789,31.154507 14,32.977689 14,35"
       id="path3478-3" />
    <path
       id="rect4422"
       style="fill:#3c0000;stroke-width:2;stroke-linecap:round"
       d="m 32.999999,3 h 7.999999 v 18 l -4,-4 -3.999999,4 z" />
    <path
       style="fill:none;stroke:none;stroke-width:1px;stroke-linecap:butt;stroke-linejoin:miter;stroke-opacity:1"
       d="m 35,17 v 4 l 3,-4 3,4 v -4"
       id="path4424" />
    <path
       style="fill:none;stroke:#000000;stroke-width:2;stroke-linecap:round;stroke-linejoin:miter;stroke-dasharray:none;stroke-opacity:1"
       d="M 19,8 H 30"
       id="path4435" />
    <path
       style="fill:none;stroke:#000000;stroke-width:2;stroke-linecap:round;stroke-linejoin:miter;stroke-dasharray:none;stroke-opacity:1"
       d="M 19,14 H 30"
       id="path4435-6" />
    <path
       style="fill:none;stroke:#000000;stroke-width:2;stroke-linecap:round;stroke-linejoin:miter;stroke-dasharray:none;stroke-opacity:1"
       d="M 19,20 H 30"
       id="path4435-2" />
    <path
       style="fill:none;stroke:#000000;stroke-width:2;stroke-linecap:round;stroke-linejoin:miter;stroke-dasharray:none;stroke-opacity:1"
       d="M 19,26 H 40"
       id="path4435-9" />
    <path
       style="fill:none;stroke:#000000;stroke-width:2;stroke-linecap:round;stroke-linejoin:miter;stroke-dasharray:none;stroke-opacity:1"
       d="M 19,32 H 40"
       id="path4435-9-1" />
    <path
       style="fill:none;stroke:#000000;stroke-width:2;stroke-linecap:round;stroke-linejoin:miter;stroke-dasharray:none;stroke-opacity:1"
       d="M 19,38 H 40"
       id="path4435-9-2" />
  </g>
</svg>
